<?xml version="1.0" standalone="no"?>
<!DOCTYPE svg PUBLIC "-//W3C//DTD SVG 20010904//EN"
 "http://www.w3.org/TR/2001/REC-SVG-20010904/DTD/svg10.dtd">
<svg version="1.0" xmlns="http://www.w3.org/2000/svg"
 width="500.000000pt" height="150.000000pt" viewBox="0 0 500.000000 150.000000"
 preserveAspectRatio="xMidYMid meet">

<g transform="translate(0.000000,150.000000) scale(0.100000,-0.100000)"
fill="#000000" stroke="none">
<path d="M1436 935 c-22 -19 -49 -36 -60 -36 -16 -1 -17 -2 -4 -6 9 -2 26 1
37 7 19 10 20 9 10 -14 -6 -13 -50 -55 -96 -93 -118 -94 -153 -143 -103 -143
26 0 90 58 148 135 52 68 65 79 135 118 43 23 53 25 65 14 18 -18 3 -79 -39
-156 -16 -30 -27 -57 -24 -59 10 -10 46 32 40 47 -3 8 -3 12 1 8 4 -4 42 27
84 67 116 111 154 123 90 30 -42 -59 -80 -143 -73 -160 8 -21 36 -17 77 11 20
14 38 25 40 25 2 0 1 -11 -2 -25 -6 -31 19 -34 65 -5 32 19 32 19 39 -2 5 -18
12 -20 51 -15 25 2 49 9 55 15 6 6 -5 6 -31 -1 -22 -6 -44 -8 -48 -3 -14 13
22 61 72 94 44 30 50 31 55 16 6 -16 7 -16 13 0 17 44 -59 25 -124 -32 -52
-45 -110 -82 -120 -76 -11 6 4 37 43 87 19 23 25 37 16 37 -7 0 -25 -15 -40
-34 -26 -33 -112 -96 -131 -96 -21 0 6 67 58 148 30 47 55 89 55 93 0 5 -11 9
-25 9 -19 0 -52 -25 -120 -91 -52 -51 -95 -90 -95 -88 0 2 11 26 25 53 55 108
15 157 -82 101 -48 -29 -53 -26 -23 12 41 52 21 57 -34 8z m-85 -152 c-38 -51
-76 -91 -103 -108 -25 -15 -28 -15 -28 -2 0 14 131 137 146 137 3 0 -4 -12
-15 -27z"/>
<path d="M2119 839 c-70 -71 -112 -118 -93 -104 39 30 43 25 13 -17 -36 -50
-13 -42 61 22 77 66 98 72 56 17 -49 -64 -25 -100 38 -58 28 19 31 19 44 3 7
-9 11 -12 8 -5 -16 30 123 131 165 120 10 -3 17 -1 13 4 -15 24 -111 -14 -176
-69 -99 -85 -132 -79 -63 12 62 82 44 87 -50 16 -59 -44 -69 -44 -33 0 7 9 48
40 91 70 113 77 141 120 80 120 -21 0 -55 -29 -154 -131z m171 113 c0 -17
-125 -122 -145 -122 -11 0 54 72 93 103 35 27 52 34 52 19z"/>
<path d="M2751 902 c-36 -37 -85 -91 -109 -120 -24 -29 -61 -61 -82 -72 -46
-23 -90 -26 -90 -6 0 18 29 42 49 39 27 -5 96 41 99 65 6 41 -55 20 -137 -47
-53 -43 -93 -71 -103 -71 -15 0 -8 28 17 65 15 20 24 40 21 43 -3 3 -32 -15
-63 -40 -32 -25 -67 -50 -78 -56 -14 -8 -16 -11 -5 -12 9 0 32 14 52 30 l37
30 -6 -35 c-5 -29 -3 -35 12 -35 10 0 32 9 50 20 l33 20 5 -20 c7 -28 61 -26
115 5 l42 24 0 -25 c0 -16 6 -24 18 -24 17 0 82 35 82 45 0 2 -15 -4 -32 -15
-18 -11 -36 -20 -40 -20 -19 0 -6 43 20 67 15 14 26 31 24 38 -3 18 141 165
162 165 27 0 5 -30 -76 -106 -40 -37 -58 -57 -40 -44 53 36 142 127 142 144 0
11 -9 16 -27 16 -20 0 -43 -17 -92 -68z m-151 -107 c-15 -19 -63 -45 -81 -45
-19 0 18 36 54 53 36 18 46 15 27 -8z"/>
<path d="M3137 923 c-18 -21 -68 -76 -112 -123 -75 -80 -74 -85 4 -15 l34 30
-29 -54 c-16 -30 -37 -56 -47 -59 -11 -3 -14 -8 -8 -11 14 -9 -71 -115 -117
-146 -20 -14 -33 -25 -28 -25 20 0 106 74 150 129 47 61 76 75 104 51 6 -6 10
-7 7 -4 -8 12 24 62 57 88 31 24 31 26 10 26 -15 0 -32 -14 -54 -45 -18 -25
-40 -45 -50 -45 -10 0 -18 2 -18 5 0 17 118 190 144 210 30 24 30 25 8 25 -15
0 -35 -14 -55 -37z"/>
<path d="M2985 940 c-4 -6 -30 -24 -58 -40 -54 -31 -58 -42 -6 -14 36 18 36
18 -34 -78 -26 -36 -50 -80 -53 -97 -6 -29 -5 -31 22 -31 16 0 36 5 44 11 12
8 10 9 -8 4 -30 -9 -39 18 -19 59 13 27 65 96 135 179 13 15 13 17 -1 17 -9 0
-19 -5 -22 -10z"/>
<path d="M1884 876 c-10 -8 -15 -18 -11 -22 4 -4 15 0 24 9 22 21 12 31 -13
13z"/>
<path d="M3215 779 c-28 -28 -63 -60 -80 -70 -16 -10 -23 -19 -16 -19 8 0 27
12 43 26 l27 27 -2 -29 c-1 -19 3 -29 14 -32 12 -2 15 3 12 20 -3 16 7 37 31
68 62 78 43 84 -29 9z"/>
<path d="M3415 804 c-22 -15 -50 -36 -62 -47 -31 -27 -29 -13 3 29 20 26 23
34 11 34 -8 0 -24 -15 -35 -34 -11 -19 -39 -47 -61 -62 -23 -15 -41 -29 -41
-31 0 -3 11 2 25 11 31 20 41 21 25 1 -7 -9 -10 -18 -7 -22 4 -3 32 18 63 46
86 79 118 91 69 27 -48 -63 -24 -98 39 -57 28 19 31 19 43 3 11 -16 12 -15 13
5 0 39 129 123 166 109 9 -3 12 -1 9 4 -16 25 -111 -12 -177 -68 -99 -85 -132
-79 -63 12 54 71 47 84 -20 40z"/>
<path d="M3635 780 c-10 -11 -15 -20 -11 -20 22 0 -65 -94 -110 -120 -65 -36
-124 -87 -124 -106 0 -24 31 -28 66 -9 18 10 55 45 81 78 26 33 73 76 103 97
31 21 62 46 70 56 8 10 -4 3 -27 -16 -51 -40 -65 -34 -29 13 14 19 26 37 26
40 0 14 -28 6 -45 -13z m-125 -177 c-57 -66 -110 -102 -110 -75 0 16 113 111
134 112 4 0 -6 -17 -24 -37z"/>
<path d="M2729 743 c-13 -16 -12 -17 4 -4 9 7 17 15 17 17 0 8 -8 3 -21 -13z"/>
<path d="M3556 724 c-26 -19 -42 -34 -34 -34 8 0 32 16 54 35 49 43 43 43 -20
-1z"/>
<path d="M2879 651 c-107 -64 -152 -143 -82 -140 17 1 21 3 11 6 -48 12 17 99
109 147 26 14 43 25 37 26 -6 0 -39 -17 -75 -39z"/>
<animate id="animate-signature" attributeName="stroke-dashoffset" begin="0s" dur="2s" from="100%" to="0%" />
</g>
</svg>
